<?xml version="1.0" encoding="UTF-8" standalone="no"?>
<!-- Created with Inkscape (http://www.inkscape.org/) -->

<svg
   xmlns:dc="http://purl.org/dc/elements/1.1/"
   xmlns:cc="http://creativecommons.org/ns#"
   xmlns:rdf="http://www.w3.org/1999/02/22-rdf-syntax-ns#"
   xmlns:svg="http://www.w3.org/2000/svg"
   xmlns="http://www.w3.org/2000/svg"
   xmlns:sodipodi="http://sodipodi.sourceforge.net/DTD/sodipodi-0.dtd"
   xmlns:inkscape="http://www.inkscape.org/namespaces/inkscape"
   width="4606.2993"
   height="2125.9841"
   id="svg2"
   version="1.1"
   inkscape:version="0.48.4 r9939"
   sodipodi:docname="DM-Display Cabinet Acryllic Shelves.svg">
  <defs
     id="defs4" />
  <sodipodi:namedview
     id="base"
     pagecolor="#ffffff"
     bordercolor="#666666"
     borderopacity="1.0"
     inkscape:pageopacity="0.0"
     inkscape:pageshadow="2"
     inkscape:zoom="0.098616518"
     inkscape:cx="1599.0549"
     inkscape:cy="1999.9001"
     inkscape:document-units="mm"
     inkscape:current-layer="layer1"
     showgrid="true"
     units="mm"
     showguides="true"
     inkscape:guide-bbox="true"
     inkscape:window-width="1920"
     inkscape:window-height="1025"
     inkscape:window-x="0"
     inkscape:window-y="27"
     inkscape:window-maximized="1">
    <inkscape:grid
       type="xygrid"
       id="grid2985"
       units="mm"
       empspacing="5"
       visible="true"
       enabled="true"
       snapvisiblegridlinesonly="true" />
  </sodipodi:namedview>
  <metadata
     id="metadata7">
    <rdf:RDF>
      <cc:Work
         rdf:about="">
        <dc:format>image/svg+xml</dc:format>
        <dc:type
           rdf:resource="http://purl.org/dc/dcmitype/StillImage" />
        <dc:title></dc:title>
      </cc:Work>
    </rdf:RDF>
  </metadata>
  <g
     inkscape:label="Layer 1"
     inkscape:groupmode="layer"
     id="layer1"
     transform="translate(0,1073.6221)">
    <g
       id="g3937">
      <path
         id="rect2983"
         d="m 133.36696,-611.2594 4269.68504,0 0,1325.1969 -4269.68504,0 z"
         style="fill:none;stroke:#ff0000;stroke-width:0.00354331;stroke-miterlimit:4;stroke-opacity:1"
         inkscape:connector-curvature="0" />
      <g
         id="text3079"
         style="font-size:40px;font-style:normal;font-variant:normal;font-weight:normal;font-stretch:normal;line-height:125%;letter-spacing:0px;word-spacing:0px;fill:none;stroke:#000000;stroke-width:0.00354331;stroke-miterlimit:4;stroke-opacity:1;font-family:Ubuntu;-inkscape-font-specification:Ubuntu"
         transform="translate(6.140289,-1061.0454)">
        <path
           id="path3852"
           d="m 4388.9697,1746.434 c -0.6134,0.6933 -1.3334,1.5333 -2.16,2.52 -0.8,0.96 -1.6534,2.04 -2.56,3.24 -0.9067,1.1733 -1.84,2.4267 -2.8,3.76 -0.96,1.3067 -1.9067,2.64 -2.84,4 -0.9067,1.3333 -1.7734,2.6666 -2.6,4 -0.8267,1.3333 -1.5734,2.6 -2.24,3.8 l 15.6,0 0,3.32 -20.12,0 0,-2.6 c 0.56,-1.0667 1.2133,-2.24 1.96,-3.52 0.7733,-1.28 1.5866,-2.5867 2.44,-3.92 0.88,-1.3333 1.7866,-2.68 2.72,-4.04 0.9333,-1.36 1.8533,-2.6667 2.76,-3.92 0.9333,-1.2533 1.8266,-2.4267 2.68,-3.52 0.88,-1.0933 1.68,-2.0533 2.4,-2.88 l -14.24,0 0,-3.32 19,0 0,3.08"
           inkscape:connector-curvature="0" />
      </g>
    </g>
    <g
       id="g3931">
      <path
         id="rect2985"
         d="m -35.439465,-4292.1567 4269.685065,0 0,1417.323 -4269.685065,0 z"
         style="fill:none;stroke:#ff0000;stroke-width:0.00354331;stroke-miterlimit:4;stroke-opacity:1;stroke-dasharray:none" />
      <g
         id="text3079-2"
         style="font-size:40px;font-style:normal;font-variant:normal;font-weight:normal;font-stretch:normal;line-height:125%;letter-spacing:0px;word-spacing:0px;fill:none;stroke:#000000;stroke-width:0.00354331;stroke-miterlimit:4;stroke-opacity:1;font-family:Ubuntu;-inkscape-font-specification:Ubuntu"
         transform="translate(-170.07874,-4658.5376)">
        <g
           id="text3892"
           style="line-height:125%;fill:none;fill-opacity:1;stroke:#000000;font-family:Lobster Two;-inkscape-font-specification:Lobster Two;stroke-opacity:1;stroke-width:0.00354331;stroke-miterlimit:4;stroke-dasharray:none">
          <path
             id="path3897"
             style="font-family:Ubuntu;-inkscape-font-specification:Ubuntu;stroke:#000000;stroke-opacity:1;fill:none;stroke-width:0.00354331;stroke-miterlimit:4;stroke-dasharray:none"
             d="m 4382.0244,1779.3721 0,-11.12 c -1.84,-2.8533 -3.5734,-5.6667 -5.2,-8.44 -1.6267,-2.7733 -3.16,-5.4933 -4.6,-8.16 l 4.56,0 c 1.0133,2.1867 2.1466,4.4133 3.4,6.68 1.2533,2.24 2.5466,4.4 3.88,6.48 1.3066,-2.08 2.5866,-4.24 3.84,-6.48 1.2533,-2.2667 2.4,-4.4933 3.44,-6.68 l 4.32,0 c -1.44,2.6667 -2.9734,5.3867 -4.6,8.16 -1.6267,2.7467 -3.3467,5.5333 -5.16,8.36 l 0,11.2 -3.88,0" />
        </g>
      </g>
    </g>
    <g
       id="g3926">
      <path
         id="rect2987"
         d="m -25.298779,-5845.7983 2203.936279,0 0,1512.9921 -2203.936279,0 z"
         style="fill:none;stroke:#000000;stroke-width:0.00354331000000000;stroke-miterlimit:4;stroke-opacity:1;stroke-dasharray:none" />
      <g
         id="text3902"
         style="font-size:40px;font-style:normal;font-variant:normal;font-weight:normal;font-stretch:normal;line-height:125%;letter-spacing:0px;word-spacing:0px;fill:none;stroke:#000000;stroke-width:0.00354331;stroke-miterlimit:4;stroke-opacity:1;font-family:Ubuntu;-inkscape-font-specification:Ubuntu;stroke-dasharray:none"
         transform="translate(102,-1051.6221)">
        <path
           style="stroke-width:0.00354331;stroke-miterlimit:4;stroke-dasharray:none"
           inkscape:connector-curvature="0"
           id="path3907"
           d="m 2063.3482,-3286.3953 c -0.4,-0.8 -0.88,-1.68 -1.44,-2.64 -0.56,-0.9866 -1.1734,-2 -1.84,-3.04 -0.6667,-1.0666 -1.36,-2.12 -2.08,-3.16 -0.72,-1.0666 -1.4134,-2.0666 -2.08,-3 -0.6667,0.9334 -1.36,1.9334 -2.08,3 -0.72,1.04 -1.4134,2.0934 -2.08,3.16 -0.64,1.04 -1.2534,2.0534 -1.84,3.04 -0.56,0.96 -1.04,1.84 -1.44,2.64 l -4.28,0 c 1.2,-2.3466 2.5867,-4.7333 4.16,-7.16 1.6,-2.4266 3.2933,-4.92 5.08,-7.48 l -8.88,-13.08 4.48,0 6.84,10.32 6.76,-10.32 4.44,0 -8.72,12.92 c 1.8133,2.5867 3.52,5.1067 5.12,7.56 1.6,2.4534 3.0133,4.8667 4.24,7.24 l -4.36,0" />
      </g>
    </g>
    <g
       id="g3921">
      <path
         id="rect2989"
         d="m 2296.8276,-5998.1167 2122.441,0 0,1608.6615 -2122.441,0 z"
         style="fill:none;stroke:#ff0000;stroke-width:0.00354331;stroke-miterlimit:4;stroke-opacity:1;stroke-dasharray:none" />
      <text
         sodipodi:linespacing="125%"
         id="text3917"
         y="-4394.1577"
         x="4375.0708"
         style="font-size:40px;font-style:normal;font-variant:normal;font-weight:normal;font-stretch:normal;line-height:125%;letter-spacing:0px;word-spacing:0px;fill:none;fill-opacity:1;stroke:#000000;font-family:Ubuntu;-inkscape-font-specification:Ubuntu;stroke-opacity:1;stroke-width:0.00354331;stroke-miterlimit:4;stroke-dasharray:none"
         xml:space="preserve"><tspan
           y="-4394.1577"
           x="4375.0708"
           id="tspan3919"
           sodipodi:role="line">W</tspan></text>
    </g>
  </g>
</svg>
