<?xml version="1.0" encoding="UTF-8" standalone="no"?>
<!-- Created with Inkscape (http://www.inkscape.org/) -->

<svg
   xmlns:dc="http://purl.org/dc/elements/1.1/"
   xmlns:cc="http://creativecommons.org/ns#"
   xmlns:rdf="http://www.w3.org/1999/02/22-rdf-syntax-ns#"
   xmlns:svg="http://www.w3.org/2000/svg"
   xmlns="http://www.w3.org/2000/svg"
   xmlns:sodipodi="http://sodipodi.sourceforge.net/DTD/sodipodi-0.dtd"
   xmlns:inkscape="http://www.inkscape.org/namespaces/inkscape"
   width="5314.9604"
   height="5314.9604"
   id="svg2"
   version="1.1"
   inkscape:version="0.48.4 r9939"
   sodipodi:docname="DM-Display Cabinet Acryllic Windows.svg">
  <defs
     id="defs4" />
  <sodipodi:namedview
     id="base"
     pagecolor="#ffffff"
     bordercolor="#666666"
     borderopacity="1.0"
     inkscape:pageopacity="0.0"
     inkscape:pageshadow="2"
     inkscape:zoom="0.047744811"
     inkscape:cx="-9086.2664"
     inkscape:cy="4416.0132"
     inkscape:document-units="mm"
     inkscape:current-layer="layer1"
     showgrid="false"
     units="mm"
     inkscape:window-width="1920"
     inkscape:window-height="1025"
     inkscape:window-x="0"
     inkscape:window-y="27"
     inkscape:window-maximized="1"
     inkscape:snap-to-guides="false"
     inkscape:snap-page="false"
     inkscape:snap-grids="false">
    <inkscape:grid
       type="xygrid"
       id="grid2985"
       empspacing="5"
       visible="true"
       enabled="true"
       snapvisiblegridlinesonly="true"
       units="mm"
       spacingx="1mm"
       spacingy="1mm" />
  </sodipodi:namedview>
  <metadata
     id="metadata7">
    <rdf:RDF>
      <cc:Work
         rdf:about="">
        <dc:format>image/svg+xml</dc:format>
        <dc:type
           rdf:resource="http://purl.org/dc/dcmitype/StillImage" />
        <dc:title />
      </cc:Work>
    </rdf:RDF>
  </metadata>
  <g
     inkscape:label="Layer 1"
     inkscape:groupmode="layer"
     id="layer1"
     transform="translate(0,4262.5989)">
    <g
       id="g3070">
      <path
         id="rect4232"
         d="m 102.7382,-4145.0884 1948.8188,0 0,892.9134 -1948.8188,0 z"
         style="fill:none;stroke:#000000;stroke-width:0.00354331;stroke-miterlimit:4;stroke-opacity:1" />
      <g
         id="text3071"
         style="font-size:40px;font-style:normal;font-variant:normal;font-weight:normal;font-stretch:normal;line-height:125%;letter-spacing:0px;word-spacing:0px;fill:none;stroke:#ff0000;stroke-width:0.99921262;stroke-miterlimit:4;stroke-opacity:1;font-family:Serif;-inkscape-font-specification:Serif">
        <path
           id="path3047"
           style="font-weight:500;stroke:#ff0000;font-family:Tlwg Typist;-inkscape-font-specification:Tlwg Typist Medium"
           d="m 2032.7817,-3254.8033 0,-19.24 -2.16,0 c -0.72,0 -1.08,-0.28 -1.08,-0.84 0,-0.5333 0.36,-0.8 1.08,-0.8 l 10.32,0 c 1.9466,0 3.5733,0.56 4.88,1.68 1.3066,1.0933 1.9599,2.4667 1.96,4.12 -10e-5,1.9733 -1.1334,3.5733 -3.4,4.8 3.3866,1.2 5.0799,3.1333 5.08,5.8 -10e-5,1.68 -0.6534,3.12 -1.96,4.32 -1.2801,1.2 -2.8267,1.8 -4.64,1.8 l -12.24,0 c -0.72,0 -1.08,-0.28 -1.08,-0.84 0,-0.5334 0.36,-0.8 1.08,-0.8 l 2.16,0 m 1.64,-10.88 5.88,0 c 1.7066,0 3.1066,-0.4 4.2,-1.2 1.0933,-0.8 1.6399,-1.8133 1.64,-3.04 -10e-5,-1.1733 -0.4934,-2.1467 -1.48,-2.92 -0.9867,-0.8 -2.2134,-1.2 -3.68,-1.2 l -6.56,0 0,8.36 m 0,10.88 8.32,0 c 1.4133,0 2.6133,-0.4267 3.6,-1.28 0.9866,-0.88 1.4799,-1.9467 1.48,-3.2 -10e-5,-0.48 -0.1067,-0.96 -0.32,-1.44 -0.2134,-0.5067 -0.5734,-1.0134 -1.08,-1.52 -0.4801,-0.5334 -1.2534,-0.96 -2.32,-1.28 -1.0401,-0.3467 -2.2801,-0.52 -3.72,-0.52 l -5.96,0 0,9.24" />
      </g>
    </g>
    <g
       id="g3065">
      <path
         id="rect4242"
         d="m 166.73828,-3168.3638 850.39372,0 0,4188.189 -850.39372,0 z"
         style="fill:none;stroke:#000000;stroke-width:0.00354331;stroke-miterlimit:4;stroke-opacity:1" />
      <g
         id="text3071-3"
         style="font-size:40px;font-style:normal;font-variant:normal;font-weight:normal;font-stretch:normal;line-height:125%;letter-spacing:0px;word-spacing:0px;fill:none;stroke:#ff0000;stroke-width:0.99921262;stroke-miterlimit:4;stroke-opacity:1;font-family:Serif;-inkscape-font-specification:Serif">
        <path
           id="path3044"
           style="font-weight:500;stroke:#ff0000;font-family:Tlwg Typist;-inkscape-font-specification:Tlwg Typist Medium"
           d="m 1008.8366,1011.4654 -10.63999,0 -2.16,5.88 3.16,0 c 0.72,0 1.07999,0.2667 1.07999,0.8 0,0.56 -0.35999,0.84 -1.07999,0.84 l -6.04,0 c -0.72,0 -1.08,-0.28 -1.08,-0.84 0,-0.5333 0.36,-0.8 1.08,-0.8 l 1.24,0 7.15999,-19.23999 -4.79999,0 c -0.72,2e-5 -1.08,-0.27998 -1.08,-0.84 0,-0.53331 0.36,-0.79997 1.08,-0.8 l 8.15999,0 7.88,20.87999 1.48,0 c 0.72,0 1.08,0.2667 1.08,0.8 0,0.56 -0.36,0.84 -1.08,0.84 l -6.24,0 c -0.72,0 -1.08,-0.28 -1.08,-0.84 0,-0.5333 0.36,-0.8 1.08,-0.8 l 3.04,0 -2.24,-5.88 m -0.6,-1.64 -4.48,-11.71999 -0.6,0 -4.31999,11.71999 9.39999,0" />
      </g>
    </g>
    <g
       id="g3075">
      <path
         id="rect4234"
         d="m 2094.7383,-4153.0884 2023.2284,0 0,892.9134 -2023.2284,0 z"
         style="fill:none;stroke:#000000;stroke-width:0.00354331;stroke-miterlimit:4;stroke-opacity:1" />
      <g
         id="text3071-8"
         style="font-size:40px;font-style:normal;font-variant:normal;font-weight:normal;font-stretch:normal;line-height:125%;letter-spacing:0px;word-spacing:0px;fill:none;stroke:#ff0000;stroke-width:0.99921262;stroke-miterlimit:4;stroke-opacity:1;font-family:Serif;-inkscape-font-specification:Serif">
        <path
           id="path3041"
           style="font-weight:500;stroke:#ff0000;font-family:Tlwg Typist;-inkscape-font-specification:Tlwg Typist Medium"
           d="m 4097.6833,-3275.3691 c 0,-1.04 0.2,-2.12 0.6,-3.24 0.4,-1.1467 0.9734,-2.2267 1.72,-3.24 0.7467,-1.04 1.76,-1.8934 3.04,-2.56 1.3067,-0.6667 2.7467,-1 4.32,-1 2.6933,0 5,0.92 6.92,2.76 l 0,-1.16 c 0,-0.72 0.28,-1.08 0.84,-1.08 0.5333,0 0.8,0.36 0.8,1.08 l 0,4.48 c 0,0.72 -0.28,1.08 -0.84,1.08 -0.48,0 -0.7467,-0.32 -0.8,-0.96 -0.08,-1.2267 -0.8133,-2.2934 -2.2,-3.2 -1.36,-0.9067 -2.9333,-1.36 -4.72,-1.36 -2.2133,0 -4.1066,0.8533 -5.68,2.56 -1.5733,1.68 -2.36,3.7066 -2.36,6.08 l 0,2.84 c 0,2.4 0.8667,4.4933 2.6,6.28 1.7334,1.76 3.7734,2.64 6.12,2.64 1.3867,0 2.6267,-0.28 3.72,-0.84 1.0933,-0.56 2.1733,-1.48 3.24,-2.76 0.24,-0.2667 0.48,-0.4 0.72,-0.4 0.5333,0 0.8,0.2533 0.8,0.76 0,0.2133 -0.2133,0.5733 -0.64,1.08 -0.4,0.5066 -0.9467,1.0533 -1.64,1.64 -0.6933,0.5866 -1.6,1.0933 -2.72,1.52 -1.12,0.4266 -2.28,0.64 -3.48,0.64 -2.72,0 -5.1333,-1.04 -7.24,-3.12 -2.08,-2.1067 -3.12,-4.5067 -3.12,-7.2 l 0,-3.32" />
      </g>
    </g>
    <g
       id="g3080">
      <path
         id="rect4236"
         d="m 4206.7383,-4156.4268 843.307,0 0,1984.252 -843.307,0 z"
         style="fill:none;stroke:#000000;stroke-width:0.00354331;stroke-miterlimit:4;stroke-opacity:1" />
      <g
         id="text3071-7"
         style="font-size:40px;font-style:normal;font-variant:normal;font-weight:normal;font-stretch:normal;line-height:125%;letter-spacing:0px;word-spacing:0px;fill:none;stroke:#ff0000;stroke-width:0.99921262;stroke-miterlimit:4;stroke-opacity:1;font-family:Serif;-inkscape-font-specification:Serif">
        <path
           id="path3038"
           style="font-weight:500;stroke:#ff0000;font-family:Tlwg Typist;-inkscape-font-specification:Tlwg Typist Medium"
           d="m 5033.1048,-2174.1434 0,-19.24 -1.36,0 c -0.72,0 -1.08,-0.28 -1.08,-0.84 0,-0.5333 0.36,-0.8 1.08,-0.8 l 8.8,0 c 2.5867,0 4.76,0.9867 6.52,2.96 1.7867,1.9467 2.68,4.3333 2.68,7.16 l 0,2.24 c 0,2.8533 -0.8933,5.2667 -2.68,7.24 -1.76,1.9466 -3.9333,2.92 -6.52,2.92 l -8.8,0 c -0.72,0 -1.08,-0.28 -1.08,-0.84 0,-0.5333 0.36,-0.8 1.08,-0.8 l 1.36,0 m 15,-11.08 c 0,-0.72 -0.1333,-1.5067 -0.4,-2.36 -0.2667,-0.8533 -0.68,-1.7333 -1.24,-2.64 -0.5333,-0.9067 -1.3333,-1.6533 -2.4,-2.24 -1.04,-0.6133 -2.24,-0.92 -3.6,-0.92 l -5.72,0 0,19.24 6,0 c 1.92,0 3.6267,-0.8267 5.12,-2.48 1.4933,-1.6533 2.24,-3.5467 2.24,-5.68 l 0,-2.92" />
      </g>
    </g>
    <g
       id="g3085">
      <path
         id="rect4250"
         d="m 3190.7383,-2117.9226 1945.2756,0 0,2065.748039 -1945.2756,0 z"
         style="fill:none;stroke:#000000;stroke-width:0.00354331;stroke-miterlimit:4;stroke-opacity:1" />
      <g
         id="text3071-6"
         style="font-size:40px;font-style:normal;font-variant:normal;font-weight:normal;font-stretch:normal;line-height:125%;letter-spacing:0px;word-spacing:0px;fill:none;stroke:#ff0000;stroke-width:0.99921262;stroke-miterlimit:4;stroke-opacity:1;font-family:Serif;-inkscape-font-specification:Serif">
        <path
           id="path3035"
           style="font-weight:500;stroke:#ff0000;font-family:Tlwg Typist;-inkscape-font-specification:Tlwg Typist Medium"
           d="m 5119.8534,-64.133613 0,9.24 12.56,0 0,-4.76 c 0,-0.719992 0.28,-1.079992 0.84,-1.08 0.5333,8e-6 0.8,0.360008 0.8,1.08 l 0,6.4 -18,0 c -0.72,0 -1.08,-0.279999 -1.08,-0.84 0,-0.533331 0.36,-0.799998 1.08,-0.8 l 2.16,0 0,-19.24 -2.16,0 c -0.72,2.1e-5 -1.08,-0.279978 -1.08,-0.84 0,-0.533311 0.36,-0.799977 1.08,-0.8 l 17.16,0 0,5.56 c 0,0.720017 -0.28,1.080016 -0.84,1.08 -0.5333,1.6e-5 -0.8,-0.359983 -0.8,-1.08 l 0,-3.92 -11.72,0 0,8.36 5.8,0 0,-1.8 c 0,-0.719984 0.28,-1.079984 0.84,-1.08 0.5333,1.6e-5 0.8,0.360016 0.8,1.08 l 0,5.24 c 0,0.720009 -0.2667,1.080008 -0.8,1.08 -0.56,8e-6 -0.84,-0.359991 -0.84,-1.08 l 0,-1.8 -5.8,0" />
      </g>
    </g>
    <g
       id="g3090">
      <path
         id="rect4252"
         d="m 3214.7383,102.91206 1948.8188,0 0,892.91339 -1948.8188,0 z"
         style="fill:none;stroke:#000000;stroke-width:0.00354331;stroke-miterlimit:4;stroke-opacity:1" />
      <g
         id="text3071-72"
         style="font-size:40px;font-style:normal;font-variant:normal;font-weight:normal;font-stretch:normal;line-height:125%;letter-spacing:0px;word-spacing:0px;fill:none;stroke:#ff0000;stroke-width:0.99921262;stroke-miterlimit:4;stroke-opacity:1;font-family:Serif;-inkscape-font-specification:Serif">
        <path
           id="path3032"
           style="font-weight:500;stroke:#ff0000;font-family:Tlwg Typist;-inkscape-font-specification:Tlwg Typist Medium"
           d="m 5148.1791,983.6565 0,9.24 5.52,0 c 0.7467,0 1.12,0.26667 1.12,0.8 0,0.56 -0.3733,0.84 -1.12,0.84 l -9.32,0 c -0.72,0 -1.08,-0.28 -1.08,-0.84 0,-0.53333 0.36,-0.8 1.08,-0.8 l 2.16,0 0,-19.24 -2.16,0 c -0.72,2e-5 -1.08,-0.27998 -1.08,-0.84 0,-0.53331 0.36,-0.79998 1.08,-0.8 l 18,0 0,5.56 c 0,0.72002 -0.28,1.08001 -0.84,1.08 -0.5334,10e-6 -0.8,-0.35998 -0.8,-1.08 l 0,-3.92 -12.56,0 0,8.36 5.8,0 0,-1.8 c 0,-0.71999 0.2667,-1.07999 0.8,-1.08 0.56,1e-5 0.84,0.36001 0.84,1.08 l 0,5.24 c 0,0.72001 -0.28,1.08001 -0.84,1.08 -0.5333,10e-6 -0.8,-0.35999 -0.8,-1.08 l 0,-1.8 -5.8,0" />
      </g>
    </g>
    <g
       id="g3095">
      <path
         id="rect4244"
         d="m 1062.7383,-979.51337 2037.4016,0 0,1991.33867 -2037.4016,0 z"
         style="fill:none;stroke:#000000;stroke-width:0.00354331;stroke-miterlimit:4;stroke-opacity:1" />
      <g
         id="text3071-70"
         style="font-size:40px;font-style:normal;font-variant:normal;font-weight:normal;font-stretch:normal;line-height:125%;letter-spacing:0px;word-spacing:0px;fill:none;stroke:#ff0000;stroke-width:0.99921262;stroke-miterlimit:4;stroke-opacity:1;font-family:Serif;-inkscape-font-specification:Serif">
        <path
           id="path3029"
           style="font-weight:500;stroke:#ff0000;font-family:Tlwg Typist;-inkscape-font-specification:Tlwg Typist Medium"
           d="m 3089.5451,989.34652 c -1.4134,2e-5 -2.68,0.29336 -3.8,0.88 -1.12,0.58669 -2.0134,1.33335 -2.68,2.24 -0.64,0.90669 -1.1334,1.85335 -1.48,2.84 -0.32,0.96002 -0.48,1.88001 -0.48,2.76 l 0,2.91998 c 0,2.72 0.8266,4.8667 2.48,6.44 1.6533,1.5467 3.92,2.32 6.8,2.32 1.8666,0 3.7733,-0.4533 5.72,-1.36 l 0,-6 -5.56,0 c -0.72,0 -1.08,-0.28 -1.08,-0.84 0,-0.5333 0.36,-0.8 1.08,-0.8 l 7.76,0 c 0.7466,0 1.1199,0.2667 1.12,0.8 -10e-5,0.56 -0.3734,0.84 -1.12,0.84 l -0.56,0 0,6.92 c -2.4001,1.3867 -4.8934,2.08 -7.48,2.08 -3.28,0 -5.9067,-0.9466 -7.88,-2.84 -1.9467,-1.8933 -2.92,-4.4133 -2.92,-7.56 l 0,-2.95998 c 0,-2.66665 0.9066,-5.05331 2.72,-7.16 1.8133,-2.10664 4.24,-3.15998 7.28,-3.16 2.64,2e-5 4.8533,0.72002 6.64,2.16 l 0,-0.56 c -1e-4,-0.71998 0.2799,-1.07998 0.84,-1.08 0.5333,2e-5 0.7999,0.36002 0.8,1.08 l 0,3.64 c -1e-4,0.72002 -0.2667,1.08002 -0.8,1.08 -0.5067,2e-5 -0.7734,-0.33332 -0.8,-1 -0.08,-1.01331 -0.7601,-1.87998 -2.04,-2.6 -1.28,-0.71998 -2.8,-1.07998 -4.56,-1.08" />
      </g>
    </g>
    <g
       id="g3100">
      <path
         id="rect4246"
         d="m 1094.7383,-2067.4976 928.3464,0 0,967.3229 -928.3464,0 z"
         style="fill:none;stroke:#000000;stroke-width:0.00354331;stroke-miterlimit:4;stroke-opacity:1" />
      <g
         id="text3071-87"
         style="font-size:40px;font-style:normal;font-variant:normal;font-weight:normal;font-stretch:normal;line-height:125%;letter-spacing:0px;word-spacing:0px;fill:none;stroke:#ff0000;stroke-width:0.99921262;stroke-miterlimit:4;stroke-opacity:1;font-family:Serif;-inkscape-font-specification:Serif">
        <path
           id="path3026"
           style="font-weight:500;stroke:#ff0000;font-family:Tlwg Typist;-inkscape-font-specification:Tlwg Typist Medium"
           d="m 2017.3413,-1112.287 -10.8,0 0,9.24 2.16,0 c 0.72,0 1.08,0.2667 1.08,0.8 0,0.56 -0.36,0.84 -1.08,0.84 l -5.6,0 c -0.7466,0 -1.12,-0.28 -1.12,-0.84 0,-0.5333 0.3734,-0.8 1.12,-0.8 l 1.8,0 0,-19.24 -1,0 c -0.72,0 -1.08,-0.28 -1.08,-0.84 0,-0.5333 0.36,-0.8 1.08,-0.8 l 4.8,0 c 0.72,0 1.08,0.2667 1.08,0.8 0,0.56 -0.36,0.84 -1.08,0.84 l -2.16,0 0,8.36 10.8,0 0,-8.36 -2.16,0 c -0.72,0 -1.08,-0.28 -1.08,-0.84 0,-0.5333 0.36,-0.8 1.08,-0.8 l 4.8,0 c 0.72,0 1.08,0.2667 1.08,0.8 0,0.56 -0.36,0.84 -1.08,0.84 l -1,0 0,19.24 1.84,0 c 0.72,0 1.08,0.2667 1.08,0.8 0,0.56 -0.36,0.84 -1.08,0.84 l -5.64,0 c -0.72,0 -1.08,-0.28 -1.08,-0.84 0,-0.5333 0.36,-0.8 1.08,-0.8 l 2.16,0 0,-9.24" />
      </g>
    </g>
    <g
       id="g3105">
      <path
         id="rect4248"
         d="m 2126.7383,-2035.4976 931.8898,0 0,967.3229 -931.8898,0 z"
         style="fill:none;stroke:#000000;stroke-width:0.00354331;stroke-miterlimit:4;stroke-opacity:1" />
      <g
         id="text3071-38"
         style="font-size:40px;font-style:normal;font-variant:normal;font-weight:normal;font-stretch:normal;line-height:125%;letter-spacing:0px;word-spacing:0px;fill:none;stroke:#ff0000;stroke-width:0.99921262;stroke-miterlimit:4;stroke-opacity:1;font-family:Serif;-inkscape-font-specification:Serif">
        <path
           id="path3023"
           style="font-weight:500;stroke:#ff0000;font-family:Tlwg Typist;-inkscape-font-specification:Tlwg Typist Medium"
           d="m 3049.9951,-1090.8834 0,19.24 5.56,0 c 0.7466,0 1.1199,0.2667 1.12,0.8 -10e-5,0.56 -0.3734,0.84 -1.12,0.84 l -12.76,0 c -0.72,0 -1.08,-0.28 -1.08,-0.84 0,-0.5333 0.36,-0.8 1.08,-0.8 l 5.56,0 0,-19.24 -5.56,0 c -0.72,0 -1.08,-0.28 -1.08,-0.84 0,-0.5333 0.36,-0.8 1.08,-0.8 l 12.76,0 c 0.7466,0 1.1199,0.2667 1.12,0.8 -10e-5,0.56 -0.3734,0.84 -1.12,0.84 l -5.56,0" />
      </g>
    </g>
    <g
       id="g3060">
      <path
         id="rect4240"
         d="m 1150.7383,-3155.4978 2037.4016,0 0,967.3228 -2037.4016,0 z"
         style="fill:none;stroke:#000000;stroke-width:0.00354331;stroke-miterlimit:4;stroke-opacity:1" />
      <g
         id="text3071-2"
         style="font-size:40px;font-style:normal;font-variant:normal;font-weight:normal;font-stretch:normal;line-height:125%;letter-spacing:0px;word-spacing:0px;fill:none;stroke:#ff0000;stroke-width:0.99921262;stroke-miterlimit:4;stroke-opacity:1;font-family:Serif;-inkscape-font-specification:Serif">
        <path
           id="path3020"
           style="font-weight:500;stroke:#ff0000;font-family:Tlwg Typist;-inkscape-font-specification:Tlwg Typist Medium"
           d="m 3182.3451,-2211.0084 0,14.28 c -1e-4,1.9733 -0.7467,3.68 -2.24,5.12 -1.4667,1.4133 -3.2267,2.12 -5.28,2.12 -1.28,0 -2.4934,-0.2667 -3.64,-0.8 -1.1467,-0.56 -2.44,-1.4933 -3.88,-2.8 l 0,-5.96 c 0,-0.72 0.28,-1.08 0.84,-1.08 0.5333,0 0.8,0.36 0.8,1.08 l 0,5.2 c 2,1.8133 3.9733,2.72 5.92,2.72 1.6266,0 3,-0.5467 4.12,-1.64 1.1466,-1.0933 1.72,-2.4133 1.72,-3.96 l 0,-14.28 -6.36,0 c -0.72,0 -1.08,-0.28 -1.08,-0.84 0,-0.5333 0.36,-0.8 1.08,-0.8 l 11.84,0 c 0.7199,0 1.0799,0.2667 1.08,0.8 -1e-4,0.56 -0.3601,0.84 -1.08,0.84 l -3.84,0" />
      </g>
    </g>
    <g
       id="g3110">
      <path
         id="rect4238"
         d="m 3230.7383,-3171.4978 938.9764,0 0,967.3228 -938.9764,0 z"
         style="fill:none;stroke:#000000;stroke-width:0.00354331;stroke-miterlimit:4;stroke-opacity:1" />
      <g
         id="text3071-4"
         style="font-size:40px;font-style:normal;font-variant:normal;font-weight:normal;font-stretch:normal;line-height:125%;letter-spacing:0px;word-spacing:0px;fill:none;stroke:#ff0000;stroke-width:0.99921262;stroke-miterlimit:4;stroke-opacity:1;font-family:Serif;-inkscape-font-specification:Serif">
        <path
           id="path3017"
           style="font-weight:500;stroke:#ff0000;font-family:Tlwg Typist;-inkscape-font-specification:Tlwg Typist Medium"
           d="m 4153.2387,-2214.8803 0,7.2 3,0 c 0.72,0 1.08,0.2667 1.08,0.8 0,0.56 -0.36,0.84 -1.08,0.84 l -6.8,0 c -0.72,0 -1.08,-0.28 -1.08,-0.84 0,-0.5333 0.36,-0.8 1.08,-0.8 l 2.16,0 0,-19.24 -2.16,0 c -0.72,0 -1.08,-0.28 -1.08,-0.84 0,-0.5333 0.36,-0.8 1.08,-0.8 l 6.8,0 c 0.72,0 1.08,0.2667 1.08,0.8 0,0.56 -0.36,0.84 -1.08,0.84 l -3,0 0,9.96 11.2,-9.96 -1.8,0 c -0.7467,0 -1.12,-0.28 -1.12,-0.84 0,-0.5333 0.3733,-0.8 1.12,-0.8 l 4.72,0 c 0.7466,0 1.12,0.2667 1.12,0.8 0,0.56 -0.3734,0.84 -1.12,0.84 l -0.64,0 -8.88,7.92 c 1.9466,0.8 3.4533,1.9334 4.52,3.4 1.0666,1.44 2.3466,4.08 3.84,7.92 l 2.24,0 c 0.7199,0 1.0799,0.2667 1.08,0.8 -10e-5,0.56 -0.3601,0.84 -1.08,0.84 l -3.48,0 c -1.4667,-4.0533 -2.7734,-6.8666 -3.92,-8.44 -1.1467,-1.6 -2.6667,-2.7066 -4.56,-3.32 l -3.24,2.92" />
      </g>
    </g>
  </g>
</svg>
